#!OML:ASF F:\VICON\USERDATA\INSTALL\rory3\rory3.ASF
:FULLY-SPECIFIED
:DEGREES
924
root 3.30134 16.4877 0.607033 10.588 6.28042 6.24142
lowerback -5.31734 1.99149 -0.38682
upperback 0.902063 2.7887 -2.61336
thorax 4.02698 1.41 -2.23939
lowerneck 1.18862 8.63664 3.5406
upperneck 57.8247 12.7367 5.8574
head 26.1727 6.29876 5.32262
rclavicle -2.16178e-014 2.88238e-014
rhumerus -43.9795 3.21263 -88.2824
rradius 59.7265
rwrist -47.9648
rhand -7.22762 -48.2593
rfingers 7.12502
rthumb 18.6519 -77.3851
lclavicle -2.16178e-014 2.88238e-014
lhumerus -21.5345 -4.78163 86.7401
lradius 36.4893
lwrist 70.7651
lhand -39.6396 -13.3594
lfingers 7.12502
lthumb -12.6203 16.2394
rfemur -51.4965 15.5874 4.04986
rtibia 76.1445
rfoot 6.87442 14.4023
rtoes -30.9954
lfemur -29.077 -7.91818 -32.6404
ltibia 46.0545
lfoot -22.8975 13.4531
ltoes 9.58387
925
root 3.3004 16.4926 0.598913 10.5616 6.39308 6.10911
lowerback -5.16672 1.96879 -0.197399
upperback 0.892423 2.74146 -2.57904
thorax 3.93733 1.39037 -2.31948
lowerneck 1.17379 8.64688 3.59222
upperneck 57.7848 12.7743 5.78459
head 26.152 6.31978 5.27179
rclavicle -3.23522e-014 1.86858e-014
rhumerus -43.8637 3.15817 -88.223
rradius 59.6276
rwrist -48.0346
rhand -7.41441 -47.4023
rfingers 7.12502
rthumb 18.4722 -76.5452
lclavicle -3.23522e-014 1.86858e-014
lhumerus -21.6997 -4.69411 86.7112
lradius 36.6672
lwrist 70.7766
lhand -39.6406 -13.5172
lfingers 7.12502
lthumb -12.6213 16.0815
rfemur -51.4909 15.5426 4.20013
rtibia 76.1289
rfoot 6.91704 14.7862
rtoes -32.1292
lfemur -29.17 -7.99991 -32.4604
ltibia 46.1592
lfoot -23.0408 13.259
ltoes 9.18138
926
root 3.29716 16.492 0.590151 10.5677 6.42646 6.00588
lowerback -5.09139 1.88466 -0.154736
upperback 0.91818 2.62103 -2.46588
thorax 3.91285 1.32999 -2.23876
lowerneck 1.14646 8.72655 3.41645
upperneck 57.7477 12.9491 5.72933
head 26.0758 6.34479 5.28619
rclavicle 4.42296e-015 2.50469e-014
rhumerus -43.6512 3.40448 -88.1559
rradius 59.5057
rwrist -48.0741
rhand -7.21198 -47.7089
rfingers 7.12502
rthumb 18.6669 -76.8333
lclavicle 4.42296e-015 2.50469e-014
lhumerus -21.4748 -4.15912 86.7368
lradius 36.5012
lwrist 70.4557
lhand -39.7684 -13.0989
lfingers 7.12502
lthumb -12.7445 16.4922
rfemur -51.6053 15.5742 4.28283
rtibia 76.1539
rfoot 6.9006 15.1701
rtoes -33.4562
lfemur -29.2744 -8.03263 -32.3163
ltibia 46.2345
lfoot -23.1626 13.1361
ltoes 11.0982
927
root 3.297 16.4902 0.579741 10.6982 6.38866 6.01533
lowerback -5.08243 1.68659 -0.277234
upperback 0.931027 2.35786 -2.30316
thorax 3.89817 1.19406 -2.02435
lowerneck 1.02067 8.91807 3.05585
upperneck 57.7578 13.3678 5.62485
head 26.0696 6.40407 5.36226
rclavicle 1.799e-014 7.15625e-015
rhumerus -43.3497 4.09421 -88.1474
rradius 59.3703
rwrist -48.1118
rhand -7.3302 -47.478
rfingers 7.12502
rthumb 18.5532 -76.6132
lclavicle 1.799e-014 7.15625e-015
lhumerus -21.4742 -3.32367 86.7075
lradius 36.5708
lwrist 70.1445
lhand -39.7329 -12.4745
lfingers 7.12502
lthumb -12.7103 17.1187
rfemur -52.0342 15.5807 4.13692
rtibia 76.2345
rfoot 8.09743 14.0225
rtoes -28.2548
lfemur -29.5045 -8.07342 -32.3011
ltibia 46.2878
lfoot -23.0992 13.1062
ltoes 9.84033
928
root 3.29891 16.4891 0.575073 10.7734 6.34866 6.15511
lowerback -5.07186 1.55577 -0.427646
upperback 0.931334 2.19136 -2.27104
thorax 3.87957 1.10734 -1.92123
lowerneck 0.993839 9.0193 2.98942
upperneck 57.7313 13.6531 5.38598
head 26.0806 6.47033 5.27857
rclavicle 1.38155e-014 2.46493e-014
rhumerus -43.1971 4.55065 -88.2094
rradius 59.2857
rwrist -48.1689
rhand -7.51904 -47.445
rfingers 7.12502
rthumb 18.3716 -76.5975
lclavicle 1.38155e-014 2.46493e-014
lhumerus -21.5048 -2.77377 86.6292
lradius 36.5528
lwrist 69.8901
lhand -39.5749 -12.5964
lfingers 7.12502
lthumb -12.558 17.0062
rfemur -52.3637 15.5446 3.87109
rtibia 76.332
rfoot 8.85673 14.3099
rtoes -27.9967
lfemur -29.5136 -8.06425 -32.4728
ltibia 46.1836
lfoot -22.9368 13.2705
ltoes 10.3761
929
root 3.29172 16.4788 0.581337 10.5822 6.40387 6.09586
lowerback -5.04839 1.72351 -0.225716
upperback 0.945134 2.40866 -2.42613
thorax 3.90316 1.22229 -2.17698
lowerneck 1.197 8.83415 3.39596
upperneck 57.6788 13.2848 5.3646
head 26.0309 6.43409 5.11034
rclavicle -1.2921e-014 5.56597e-015
rhumerus -43.4038 3.95034 -88.2826
rradius 59.2977
rwrist -48.2257
rhand -7.64962 -47.651
rfingers 7.12502
rthumb 18.2459 -76.8152
lclavicle -1.2921e-014 5.56597e-015
lhumerus -21.5414 -3.33701 86.5713
lradius 36.3798
lwrist 69.7658
lhand -39.5111 -12.9398
lfingers 7.12502
lthumb -12.4965 16.6665
rfemur -51.8481 15.5757 4.11886
rtibia 76.2524
rfoot 7.90744 14.7857
rtoes -30.6826
lfemur -29.1978 -7.95136 -32.4246
ltibia 46.0207
lfoot -22.9005 13.3374
ltoes 9.57087
930
root 3.28998 16.5147 0.588758 10.4633 6.45673 5.9724
lowerback -5.11378 1.74216 -0.0912102
upperback 1.03288 2.42823 -2.43071
thorax 4.03776 1.23599 -2.25243
lowerneck 1.1229 8.83264 3.29049
upperneck 57.6827 13.1544 5.64315
head 25.9767 6.38593 5.27053
rclavicle 8.59744e-015 -1.31198e-014
rhumerus -43.3896 3.88172 -88.3327
rradius 59.3585
rwrist -48.327
rhand -7.57848 -47.9824
rfingers 7.12502
rthumb 18.3144 -77.1402
lclavicle 8.59744e-015 -1.31198e-014
lhumerus -21.3899 -3.40349 86.5125
lradius 36.2448
lwrist 69.8496
lhand -39.4309 -13.3154
lfingers 7.12502
lthumb -12.4191 16.2957
rfemur -51.9438 15.7775 4.21377
rtibia 76.2382
rfoot 9.40592 14.0545
rtoes -27.4783
lfemur -28.9228 -7.91709 -32.2611
ltibia 45.7878
lfoot -23.0082 13.1159
ltoes 10.4718
931
root 3.29149 16.5424 0.591717 10.5006 6.44377 5.99856
lowerback -5.27592 1.58008 -0.230436
upperback 1.14949 2.22138 -2.31637
thorax 4.23178 1.12896 -2.06826
lowerneck 0.865733 8.98835 2.91897
upperneck 57.6919 13.426 5.7169
head 25.9888 6.39804 5.4428
rclavicle -2.74323e-014 2.34566e-014
rhumerus -43.1394 4.50915 -88.3545
rradius 59.3815
rwrist -48.4315
rhand -7.35588 -48.199
rfingers 7.12502
rthumb 18.5285 -77.3366
lclavicle -2.74323e-014 2.34566e-014
lhumerus -21.1122 -2.85687 86.4815
lradius 36.2565
lwrist 70.1076
lhand -39.4542 -13.6984
lfingers 7.12502
lthumb -12.4415 15.9113
rfemur -51.9946 15.8052 4.12127
rtibia 76.118
rfoot 9.97841 13.8365
rtoes -26.5826
lfemur -28.87 -7.88844 -32.2856
ltibia 45.6853
lfoot -22.9486 13.1124
ltoes 10.0545
